<svg version="1.1" id="Layer_1" xmlns="http://www.w3.org/2000/svg" xmlns:xlink="http://www.w3.org/1999/xlink" x="0px" y="0px"
	 width="100%" viewBox="0 0 1200 200" enable-background="new 0 0 1200 200" xml:space="preserve">
<path fill="#FEFEFE" opacity="1.000000" stroke="none" 
	d="
M903.000000,201.000000 
	C602.000000,201.000000 301.500000,201.000000 1.000000,201.000000 
	C1.000000,134.333328 1.000000,67.666664 1.000000,1.000000 
	C401.000000,1.000000 801.000000,1.000000 1201.000000,1.000000 
	C1201.000000,67.666664 1201.000000,134.333328 1201.000000,201.000000 
	C1101.833374,201.000000 1002.666687,201.000000 903.000000,201.000000 
M213.716125,110.149208 
	C217.704819,97.372261 219.026993,84.370956 216.470642,71.168182 
	C206.125839,17.740499 149.772308,-10.405016 101.369698,14.519487 
	C72.152832,29.564455 57.208015,54.885010 58.344574,87.733490 
	C59.485794,120.716545 76.340424,144.403885 106.391357,158.355484 
	C112.754791,161.309799 114.537834,160.356491 116.606003,153.814880 
	C121.017479,139.861420 125.279099,125.859581 129.819061,111.948357 
	C131.308975,107.382996 130.782318,104.319633 126.448257,101.385010 
	C118.760361,96.179466 116.151375,87.338409 118.948616,78.931114 
	C121.673271,70.741974 129.279373,65.210640 137.847977,65.187050 
	C146.497589,65.163239 154.356232,70.958786 156.993332,79.306244 
	C159.615479,87.606361 156.677490,96.563705 149.045822,101.664467 
	C145.352249,104.133125 144.369095,106.698441 145.706421,110.861145 
	C150.434158,125.577080 154.901703,140.376419 159.578690,155.108963 
	C161.102173,159.907959 163.392654,160.926163 167.891357,159.039780 
	C190.160355,149.701981 205.238464,133.553665 213.716125,110.149208 
M615.001404,136.499878 
	C615.001404,118.110321 615.001404,99.720772 615.001404,81.331215 
	C615.397766,81.241394 615.794128,81.151566 616.190552,81.061745 
	C626.020996,106.361664 635.851440,131.661591 645.617615,156.795990 
	C653.003418,156.795990 659.940796,156.795990 666.987488,156.795990 
	C676.783997,131.735626 686.522644,106.823204 696.261292,81.910782 
	C696.649170,81.991676 697.037109,82.072578 697.424988,82.153481 
	C697.424988,107.343834 697.424988,132.534180 697.424988,157.671829 
	C709.527100,157.671829 721.086182,157.671829 732.580811,157.671829 
	C732.580811,113.415260 732.580811,69.512177 732.580811,25.158487 
	C719.197388,25.158487 706.075134,25.325005 692.962097,25.053202 
	C689.211731,24.975466 687.408020,26.080208 686.016052,29.559589 
	C677.756531,50.205036 669.281616,70.764412 660.842957,91.337914 
	C659.574829,94.429588 658.117371,97.443611 656.134338,101.858788 
	C645.219849,75.308884 634.922913,50.261131 624.732422,25.472311 
	C609.575562,25.472311 594.820923,25.472311 579.983765,25.472311 
	C579.983765,69.718262 579.983765,113.640572 579.983765,157.726044 
	C591.696777,157.726044 603.240173,157.726044 615.001404,157.726044 
	C615.001404,150.784256 615.001404,144.142029 615.001404,136.499878 
M310.211731,156.939285 
	C315.447357,152.982300 321.724884,149.867661 325.728821,144.914932 
	C339.304596,128.122055 339.596558,91.487022 327.551086,73.465355 
	C313.517212,52.468727 280.536469,50.480534 269.742157,74.386032 
	C269.673126,74.538925 269.207001,74.512512 268.283691,74.701050 
	C268.283691,69.207718 268.283691,63.831497 268.283691,58.559177 
	C256.205597,58.559177 244.769012,58.559177 233.160309,58.559177 
	C233.160309,104.200073 233.160309,149.584152 233.160309,194.980438 
	C245.103561,194.980438 256.807434,194.980438 268.885590,194.980438 
	C268.885590,177.413391 268.885590,160.193161 268.885590,142.412872 
	C279.485596,158.226700 291.612823,162.510529 310.211731,156.939285 
M551.473755,158.005676 
	C555.086670,158.005676 558.699585,158.005676 562.693665,158.005676 
	C562.693665,153.365524 562.728149,149.232178 562.687622,145.099564 
	C562.498352,125.782394 562.945618,106.429077 561.879944,87.159767 
	C561.012024,71.465477 549.326965,60.220203 533.478210,57.512154 
	C520.650391,55.320286 503.685730,60.585606 497.780029,75.871445 
	C497.651855,76.203278 497.145569,76.389061 496.201050,77.115997 
	C496.201050,70.617744 496.201050,64.739143 496.201050,58.621159 
	C484.654846,58.621159 473.598694,58.621159 462.423462,58.621159 
	C462.423462,91.858498 462.423462,124.759499 462.423462,157.663040 
	C474.443726,157.663040 486.158539,157.663040 498.007263,157.663040 
	C498.007263,155.664612 498.007324,154.007202 498.007263,152.349792 
	C498.006653,135.687714 497.959137,119.025429 498.025970,102.363617 
	C498.057495,94.500259 501.288086,89.182297 507.009277,87.070595 
	C517.731384,83.113037 526.851196,89.893738 526.920227,102.070190 
	C527.016541,119.064865 526.934570,136.060547 526.929077,153.055801 
	C526.928528,154.646881 526.929016,156.237961 526.929016,158.005676 
	C535.191101,158.005676 542.836914,158.005676 551.473755,158.005676 
M838.360962,158.004517 
	C841.662354,158.526367 841.178406,156.220642 841.177979,154.252213 
	C841.173157,132.940002 841.161499,111.627777 841.178101,90.315575 
	C841.185852,80.437393 836.990173,72.702209 829.238037,66.797211 
	C821.594788,60.975071 812.710266,58.420162 803.333801,57.532413 
	C789.134277,56.188030 775.335327,57.314449 763.292236,66.033028 
	C754.966370,72.060486 750.456055,80.254814 749.884705,90.803970 
	C761.087036,90.803970 771.715332,90.803970 782.287170,90.803970 
	C785.286438,82.806168 792.781921,79.271980 800.219543,82.908447 
	C802.437622,83.992928 804.361633,86.986397 805.089050,89.491776 
	C806.069946,92.869957 803.526245,95.112152 800.366760,96.000694 
	C797.189026,96.894356 793.904236,97.423950 790.650269,98.026520 
	C781.703430,99.683327 772.409546,100.286690 763.873657,103.154327 
	C750.188843,107.751747 744.733154,118.624054 746.011536,135.072098 
	C746.932678,146.924194 754.615295,155.586853 767.720276,158.367310 
	C779.264404,160.816589 790.674316,160.476242 800.350220,152.386993 
	C802.996765,150.174438 804.981018,147.169693 807.986206,143.700912 
	C807.986206,149.116455 807.986206,153.483994 807.986206,158.004776 
	C818.095825,158.004776 827.737976,158.004776 838.360962,158.004517 
M1116.638794,62.763943 
	C1110.292358,60.971058 1104.045410,58.269627 1097.580200,57.562683 
	C1080.933472,55.742424 1065.179077,58.605080 1052.922607,71.137764 
	C1038.367310,86.020889 1036.374023,104.390404 1040.764526,123.615417 
	C1045.782837,145.589462 1063.002441,158.786163 1086.779907,159.813309 
	C1100.025269,160.385468 1112.493896,157.958054 1123.590332,149.996429 
	C1149.384888,131.489059 1149.318481,79.020470 1116.638794,62.763943 
M419.499695,116.508057 
	C428.784088,116.508057 438.068512,116.508057 447.691711,116.508057 
	C447.691711,112.554306 447.812561,109.243164 447.670227,105.943375 
	C447.126465,93.336952 444.102997,81.498749 435.232727,72.059685 
	C421.243378,57.173328 403.511017,54.635368 384.649414,58.631516 
	C361.766052,63.479748 348.287231,81.366295 347.590942,106.562202 
	C347.192932,120.963699 350.068604,134.456940 360.373505,145.298737 
	C378.435181,164.301376 418.243958,165.007614 437.041077,146.699982 
	C442.759277,141.130692 446.450043,134.425049 447.361511,125.931122 
	C436.978302,125.931122 426.997528,125.893082 417.018097,125.992584 
	C416.067413,126.002060 414.838318,126.634430 414.224152,127.378487 
	C408.871521,133.863052 401.296570,136.275772 393.413116,133.852859 
	C386.218445,131.641647 381.960236,124.243057 383.587585,116.508018 
	C395.196350,116.508018 406.847992,116.508018 419.499695,116.508057 
M883.721375,61.114159 
	C867.913879,67.864700 858.727966,79.819542 855.846069,96.684380 
	C853.078918,112.877731 854.827698,128.288940 864.954285,141.771393 
	C882.267883,164.822433 920.275085,163.725754 937.467468,151.093826 
	C949.026489,142.600983 954.039612,130.992569 954.073181,116.707108 
	C942.810791,116.707108 932.059509,116.707108 921.485291,116.707108 
	C920.692627,119.338394 920.124634,121.770157 919.232300,124.076454 
	C917.166016,129.416809 913.077393,132.426712 907.454163,132.612473 
	C901.936340,132.794754 897.261108,130.554138 894.864746,125.284248 
	C889.700867,113.928192 889.610413,102.415253 894.952454,91.114655 
	C897.589294,85.536659 902.513611,83.381691 908.577637,84.008141 
	C914.363586,84.605865 917.792114,88.181137 919.692139,93.388710 
	C920.459473,95.492043 920.893555,97.716980 921.413757,99.643723 
	C932.529724,99.643723 943.290466,99.643723 954.247437,99.643723 
	C953.806030,83.296852 947.491699,70.601074 932.861938,63.159405 
	C917.188660,55.186928 900.891724,55.264061 883.721375,61.114159 
M1021.678711,57.877861 
	C1011.851990,60.311668 1007.637512,68.088829 1004.650330,77.034523 
	C1004.290100,76.833870 1003.929810,76.633209 1003.569580,76.432556 
	C1003.569580,70.524849 1003.569580,64.617134 1003.569580,58.545776 
	C991.878113,58.545776 980.633301,58.545776 969.321106,58.545776 
	C969.321106,91.819893 969.321106,124.839989 969.321106,157.637741 
	C981.374390,157.637741 993.100891,157.637741 1004.932983,157.637741 
	C1004.932983,140.293594 1004.892822,123.316216 1004.946655,106.339134 
	C1004.984558,94.386253 1012.538879,86.891029 1024.331543,87.222542 
	C1028.265503,87.333145 1032.182617,88.037529 1036.320068,88.493927 
	C1036.320068,78.552841 1036.320068,68.622833 1036.320068,57.698700 
	C1031.578735,57.698700 1027.033813,57.698700 1021.678711,57.877861 
z"/>
<path fill="#030303" opacity="1.000000" stroke="none" 
	d="
M213.541382,110.503418 
	C205.238464,133.553665 190.160355,149.701981 167.891357,159.039780 
	C163.392654,160.926163 161.102173,159.907959 159.578690,155.108963 
	C154.901703,140.376419 150.434158,125.577080 145.706421,110.861145 
	C144.369095,106.698441 145.352249,104.133125 149.045822,101.664467 
	C156.677490,96.563705 159.615479,87.606361 156.993332,79.306244 
	C154.356232,70.958786 146.497589,65.163239 137.847977,65.187050 
	C129.279373,65.210640 121.673271,70.741974 118.948616,78.931114 
	C116.151375,87.338409 118.760361,96.179466 126.448257,101.385010 
	C130.782318,104.319633 131.308975,107.382996 129.819061,111.948357 
	C125.279099,125.859581 121.017479,139.861420 116.606003,153.814880 
	C114.537834,160.356491 112.754791,161.309799 106.391357,158.355484 
	C76.340424,144.403885 59.485794,120.716545 58.344574,87.733490 
	C57.208015,54.885010 72.152832,29.564455 101.369698,14.519487 
	C149.772308,-10.405016 206.125839,17.740499 216.470642,71.168182 
	C219.026993,84.370956 217.704819,97.372261 213.541382,110.503418 
z"/>
<path fill="#030303" opacity="1.000000" stroke="none" 
	d="
M615.001404,136.999847 
	C615.001404,144.142029 615.001404,150.784256 615.001404,157.726044 
	C603.240173,157.726044 591.696777,157.726044 579.983765,157.726044 
	C579.983765,113.640572 579.983765,69.718262 579.983765,25.472311 
	C594.820923,25.472311 609.575562,25.472311 624.732422,25.472311 
	C634.922913,50.261131 645.219849,75.308884 656.134338,101.858788 
	C658.117371,97.443611 659.574829,94.429588 660.842957,91.337914 
	C669.281616,70.764412 677.756531,50.205036 686.016052,29.559589 
	C687.408020,26.080208 689.211731,24.975466 692.962097,25.053202 
	C706.075134,25.325005 719.197388,25.158487 732.580811,25.158487 
	C732.580811,69.512177 732.580811,113.415260 732.580811,157.671829 
	C721.086182,157.671829 709.527100,157.671829 697.424988,157.671829 
	C697.424988,132.534180 697.424988,107.343834 697.424988,82.153481 
	C697.037109,82.072578 696.649170,81.991676 696.261292,81.910782 
	C686.522644,106.823204 676.783997,131.735626 666.987488,156.795990 
	C659.940796,156.795990 653.003418,156.795990 645.617615,156.795990 
	C635.851440,131.661591 626.020996,106.361664 616.190552,81.061745 
	C615.794128,81.151566 615.397766,81.241394 615.001404,81.331215 
	C615.001404,99.720772 615.001404,118.110321 615.001404,136.999847 
z"/>
<path fill="#030303" opacity="1.000000" stroke="none" 
	d="
M309.835083,157.057892 
	C291.612823,162.510529 279.485596,158.226700 268.885590,142.412872 
	C268.885590,160.193161 268.885590,177.413391 268.885590,194.980438 
	C256.807434,194.980438 245.103561,194.980438 233.160309,194.980438 
	C233.160309,149.584152 233.160309,104.200073 233.160309,58.559177 
	C244.769012,58.559177 256.205597,58.559177 268.283691,58.559177 
	C268.283691,63.831497 268.283691,69.207718 268.283691,74.701050 
	C269.207001,74.512512 269.673126,74.538925 269.742157,74.386032 
	C280.536469,50.480534 313.517212,52.468727 327.551086,73.465355 
	C339.596558,91.487022 339.304596,128.122055 325.728821,144.914932 
	C321.724884,149.867661 315.447357,152.982300 309.835083,157.057892 
M294.305359,126.735756 
	C300.976074,116.371307 300.534882,105.323006 296.867584,94.255058 
	C294.891724,88.291801 290.427673,84.703636 283.745209,84.680748 
	C277.079803,84.657921 272.675720,88.256744 270.432739,94.088821 
	C266.855560,103.390068 266.653778,113.005051 270.465729,122.275970 
	C274.802521,132.823318 285.477631,134.954041 294.305359,126.735756 
z"/>
<path fill="#040404" opacity="1.000000" stroke="none" 
	d="
M550.978271,158.005676 
	C542.836914,158.005676 535.191101,158.005676 526.929016,158.005676 
	C526.929016,156.237961 526.928528,154.646881 526.929077,153.055801 
	C526.934570,136.060547 527.016541,119.064865 526.920227,102.070190 
	C526.851196,89.893738 517.731384,83.113037 507.009277,87.070595 
	C501.288086,89.182297 498.057495,94.500259 498.025970,102.363617 
	C497.959137,119.025429 498.006653,135.687714 498.007263,152.349792 
	C498.007324,154.007202 498.007263,155.664612 498.007263,157.663040 
	C486.158539,157.663040 474.443726,157.663040 462.423462,157.663040 
	C462.423462,124.759499 462.423462,91.858498 462.423462,58.621159 
	C473.598694,58.621159 484.654846,58.621159 496.201050,58.621159 
	C496.201050,64.739143 496.201050,70.617744 496.201050,77.115997 
	C497.145569,76.389061 497.651855,76.203278 497.780029,75.871445 
	C503.685730,60.585606 520.650391,55.320286 533.478210,57.512154 
	C549.326965,60.220203 561.012024,71.465477 561.879944,87.159767 
	C562.945618,106.429077 562.498352,125.782394 562.687622,145.099564 
	C562.728149,149.232178 562.693665,153.365524 562.693665,158.005676 
	C558.699585,158.005676 555.086670,158.005676 550.978271,158.005676 
z"/>
<path fill="#030303" opacity="1.000000" stroke="none" 
	d="
M837.870544,158.004639 
	C827.737976,158.004776 818.095825,158.004776 807.986206,158.004776 
	C807.986206,153.483994 807.986206,149.116455 807.986206,143.700912 
	C804.981018,147.169693 802.996765,150.174438 800.350220,152.386993 
	C790.674316,160.476242 779.264404,160.816589 767.720276,158.367310 
	C754.615295,155.586853 746.932678,146.924194 746.011536,135.072098 
	C744.733154,118.624054 750.188843,107.751747 763.873657,103.154327 
	C772.409546,100.286690 781.703430,99.683327 790.650269,98.026520 
	C793.904236,97.423950 797.189026,96.894356 800.366760,96.000694 
	C803.526245,95.112152 806.069946,92.869957 805.089050,89.491776 
	C804.361633,86.986397 802.437622,83.992928 800.219543,82.908447 
	C792.781921,79.271980 785.286438,82.806168 782.287170,90.803970 
	C771.715332,90.803970 761.087036,90.803970 749.884705,90.803970 
	C750.456055,80.254814 754.966370,72.060486 763.292236,66.033028 
	C775.335327,57.314449 789.134277,56.188030 803.333801,57.532413 
	C812.710266,58.420162 821.594788,60.975071 829.238037,66.797211 
	C836.990173,72.702209 841.185852,80.437393 841.178101,90.315575 
	C841.161499,111.627777 841.173157,132.940002 841.177979,154.252213 
	C841.178406,156.220642 841.662354,158.526367 837.870544,158.004639 
M804.572632,115.009422 
	C798.182739,116.614090 791.586914,117.669655 785.457520,119.968803 
	C778.513611,122.573471 777.002625,131.720139 782.880554,134.834183 
	C786.063049,136.520218 790.638062,137.026672 794.200989,136.266205 
	C803.743408,134.229523 806.726135,128.018005 804.572632,115.009422 
z"/>
<path fill="#030303" opacity="1.000000" stroke="none" 
	d="
M1116.980469,62.912888 
	C1149.318481,79.020470 1149.384888,131.489059 1123.590332,149.996429 
	C1112.493896,157.958054 1100.025269,160.385468 1086.779907,159.813309 
	C1063.002441,158.786163 1045.782837,145.589462 1040.764526,123.615417 
	C1036.374023,104.390404 1038.367310,86.020889 1052.922607,71.137764 
	C1065.179077,58.605080 1080.933472,55.742424 1097.580200,57.562683 
	C1104.045410,58.269627 1110.292358,60.971058 1116.980469,62.912888 
M1078.340210,92.050095 
	C1074.467285,102.563866 1074.297363,113.170959 1078.106934,123.674553 
	C1080.157227,129.327911 1083.991699,133.256668 1090.596680,133.292664 
	C1096.250244,133.323456 1100.621094,130.141815 1102.975464,123.554558 
	C1106.616577,113.366722 1106.523193,103.019066 1102.986938,92.828392 
	C1101.141724,87.510948 1097.601807,83.494873 1091.580078,83.083061 
	C1085.411255,82.661179 1081.197754,85.806625 1078.340210,92.050095 
z"/>
<path fill="#030303" opacity="1.000000" stroke="none" 
	d="
M418.999695,116.508041 
	C406.847992,116.508018 395.196350,116.508018 383.587585,116.508018 
	C381.960236,124.243057 386.218445,131.641647 393.413116,133.852859 
	C401.296570,136.275772 408.871521,133.863052 414.224152,127.378487 
	C414.838318,126.634430 416.067413,126.002060 417.018097,125.992584 
	C426.997528,125.893082 436.978302,125.931122 447.361511,125.931122 
	C446.450043,134.425049 442.759277,141.130692 437.041077,146.699982 
	C418.243958,165.007614 378.435181,164.301376 360.373505,145.298737 
	C350.068604,134.456940 347.192932,120.963699 347.590942,106.562202 
	C348.287231,81.366295 361.766052,63.479748 384.649414,58.631516 
	C403.511017,54.635368 421.243378,57.173328 435.232727,72.059685 
	C444.102997,81.498749 447.126465,93.336952 447.670227,105.943375 
	C447.812561,109.243164 447.691711,112.554306 447.691711,116.508057 
	C438.068512,116.508057 428.784088,116.508057 418.999695,116.508041 
M389.624786,96.859818 
	C397.886017,96.859818 406.147217,96.859818 414.415680,96.859818 
	C414.125519,88.075378 407.363739,81.911766 398.716766,82.163704 
	C390.250977,82.410355 382.125488,88.772346 383.233154,96.575165 
	C383.552094,96.658173 383.869415,96.805344 384.190216,96.813225 
	C385.682007,96.849854 387.174713,96.847939 389.624786,96.859818 
z"/>
<path fill="#040404" opacity="1.000000" stroke="none" 
	d="
M884.085388,60.980934 
	C900.891724,55.264061 917.188660,55.186928 932.861938,63.159405 
	C947.491699,70.601074 953.806030,83.296852 954.247437,99.643723 
	C943.290466,99.643723 932.529724,99.643723 921.413757,99.643723 
	C920.893555,97.716980 920.459473,95.492043 919.692139,93.388710 
	C917.792114,88.181137 914.363586,84.605865 908.577637,84.008141 
	C902.513611,83.381691 897.589294,85.536659 894.952454,91.114655 
	C889.610413,102.415253 889.700867,113.928192 894.864746,125.284248 
	C897.261108,130.554138 901.936340,132.794754 907.454163,132.612473 
	C913.077393,132.426712 917.166016,129.416809 919.232300,124.076454 
	C920.124634,121.770157 920.692627,119.338394 921.485291,116.707108 
	C932.059509,116.707108 942.810791,116.707108 954.073181,116.707108 
	C954.039612,130.992569 949.026489,142.600983 937.467468,151.093826 
	C920.275085,163.725754 882.267883,164.822433 864.954285,141.771393 
	C854.827698,128.288940 853.078918,112.877731 855.846069,96.684380 
	C858.727966,79.819542 867.913879,67.864700 884.085388,60.980934 
z"/>
<path fill="#030303" opacity="1.000000" stroke="none" 
	d="
M1022.083862,57.788280 
	C1027.033813,57.698700 1031.578735,57.698700 1036.320068,57.698700 
	C1036.320068,68.622833 1036.320068,78.552841 1036.320068,88.493927 
	C1032.182617,88.037529 1028.265503,87.333145 1024.331543,87.222542 
	C1012.538879,86.891029 1004.984558,94.386253 1004.946655,106.339134 
	C1004.892822,123.316216 1004.932983,140.293594 1004.932983,157.637741 
	C993.100891,157.637741 981.374390,157.637741 969.321106,157.637741 
	C969.321106,124.839989 969.321106,91.819893 969.321106,58.545776 
	C980.633301,58.545776 991.878113,58.545776 1003.569580,58.545776 
	C1003.569580,64.617134 1003.569580,70.524849 1003.569580,76.432556 
	C1003.929810,76.633209 1004.290100,76.833870 1004.650330,77.034523 
	C1007.637512,68.088829 1011.851990,60.311668 1022.083862,57.788280 
z"/>
<path fill="#FBFBFB" opacity="1.000000" stroke="none" 
	d="
M294.067017,127.021011 
	C285.477631,134.954041 274.802521,132.823318 270.465729,122.275970 
	C266.653778,113.005051 266.855560,103.390068 270.432739,94.088821 
	C272.675720,88.256744 277.079803,84.657921 283.745209,84.680748 
	C290.427673,84.703636 294.891724,88.291801 296.867584,94.255058 
	C300.534882,105.323006 300.976074,116.371307 294.067017,127.021011 
z"/>
<path fill="#F6F6F6" opacity="1.000000" stroke="none" 
	d="
M804.979431,115.147629 
	C806.726135,128.018005 803.743408,134.229523 794.200989,136.266205 
	C790.638062,137.026672 786.063049,136.520218 782.880554,134.834183 
	C777.002625,131.720139 778.513611,122.573471 785.457520,119.968803 
	C791.586914,117.669655 798.182739,116.614090 804.979431,115.147629 
z"/>
<path fill="#FBFBFB" opacity="1.000000" stroke="none" 
	d="
M1078.545898,91.727386 
	C1081.197754,85.806625 1085.411255,82.661179 1091.580078,83.083061 
	C1097.601807,83.494873 1101.141724,87.510948 1102.986938,92.828392 
	C1106.523193,103.019066 1106.616577,113.366722 1102.975464,123.554558 
	C1100.621094,130.141815 1096.250244,133.323456 1090.596680,133.292664 
	C1083.991699,133.256668 1080.157227,129.327911 1078.106934,123.674553 
	C1074.297363,113.170959 1074.467285,102.563866 1078.545898,91.727386 
z"/>
<path fill="#F3F3F3" opacity="1.000000" stroke="none" 
	d="
M389.145935,96.859818 
	C387.174713,96.847939 385.682007,96.849854 384.190216,96.813225 
	C383.869415,96.805344 383.552094,96.658173 383.233582,96.573486 
	C382.125488,88.772346 390.250977,82.410355 398.716766,82.163704 
	C407.363739,81.911766 414.125519,88.075378 414.415680,96.859818 
	C406.147217,96.859818 397.886017,96.859818 389.145935,96.859818 
z"/>
</svg>